<svg width="32" height="32" viewBox="0 0 32 32" fill="none" xmlns="http://www.w3.org/2000/svg">
<path d="M12.2665 9.498L12.3491 11.3984L11.0271 13.8771L8.96146 17.9257L8.54834 21.3134L10.0356 26.1056L13.4232 28.006H18.546L23.3382 24.3705L25.4865 18.6694L20.529 12.6377L19.1243 9.25012L12.2665 9.498Z" fill="#ECEFF1"/>
<path d="M23.9993 14.2076C22.6773 12.3072 21.6032 11.1505 21.0248 8.75436C20.4464 6.35824 21.1901 7.01924 20.6943 4.95362C20.4464 3.87949 20.0333 3.13587 19.6202 2.55749C19.1244 1.97912 18.5461 1.64862 18.2156 1.56599C17.4719 1.15287 15.7368 0.491866 13.5886 1.64862C11.3577 2.80537 11.6056 5.28412 12.0187 10.3242C12.0187 10.6547 11.9361 11.0679 11.7708 11.3984C11.4403 12.142 10.8619 12.803 10.3662 13.3814C9.78781 14.2076 9.20943 15.0339 8.79631 15.9427C7.80481 17.8431 6.89593 20.2392 7.14381 21.1481C7.55693 21.0655 12.7623 28.9975 12.7623 29.1627C13.0928 29.0801 14.4974 29.0801 15.7368 29.0801C17.4719 28.9975 18.4634 28.9149 19.8681 29.2454C19.8681 28.9975 19.7854 28.7496 19.7854 28.5017C19.7854 28.006 19.8681 27.5929 19.9507 27.0145C20.0333 26.6014 20.1159 26.1882 20.1986 25.6925C19.3723 26.4361 17.8851 27.2624 16.4804 27.5102C15.2411 27.7581 13.1754 27.345 12.1839 26.1056C12.2666 26.1056 12.4318 26.1056 12.5144 26.023C12.7623 25.9404 13.0102 25.8577 13.0928 25.6925C13.3407 25.2794 13.1754 24.8662 13.0102 24.6184C12.8449 24.3705 11.6056 23.4616 11.0272 22.9659C10.4488 22.4701 10.1183 22.2222 9.78781 21.8917C9.78781 21.8917 9.29206 21.396 9.12681 21.2307C8.96156 21.0655 8.87893 20.9002 8.79631 20.8176C8.63106 20.4045 8.54843 19.9087 8.63106 19.2477C8.71368 18.3389 9.04418 17.5952 9.45731 16.769C9.62256 16.4385 10.0357 15.7775 10.0357 15.7775C10.0357 15.7775 8.63106 19.2477 9.37468 20.3219C9.37468 20.3219 9.45731 19.2477 9.78781 18.1736C10.0357 17.43 10.4488 16.3559 10.9446 15.7775C11.4403 15.1991 12.6797 13.0509 12.7623 11.7289C12.7623 11.1505 12.8449 10.5721 12.8449 10.159C12.5144 9.82849 18.2982 9.00224 18.6287 9.91112C18.7113 10.2416 19.8681 13.2161 20.5291 14.786C20.8596 15.5296 21.2727 16.1906 21.5206 17.0169C21.7684 17.9257 21.9337 19.1651 21.9337 20.4045C21.9337 20.6524 21.9337 21.0655 21.8511 21.4786C22.0163 21.4786 25.2387 18.0084 21.4379 15.1165C21.4379 15.1165 23.7514 16.1906 23.8341 18.3389C23.9167 20.074 23.1731 21.4786 23.0078 21.7265C23.0904 21.7265 24.7429 22.4701 24.8256 22.4701C25.1561 22.4701 25.8171 22.2222 25.8171 22.2222C25.8997 21.9744 26.1476 21.3134 26.1476 21.0655C26.7259 19.1651 25.3213 16.108 23.9993 14.2076Z" fill="#263238"/>
<path d="M13.5058 8.75434C14.099 8.75434 14.5799 8.01449 14.5799 7.10184C14.5799 6.18919 14.099 5.44934 13.5058 5.44934C12.9125 5.44934 12.4316 6.18919 12.4316 7.10184C12.4316 8.01449 12.9125 8.75434 13.5058 8.75434Z" fill="#ECEFF1"/>
<path d="M17.224 8.91965C17.9997 8.91965 18.6286 8.06882 18.6286 7.01927C18.6286 5.96972 17.9997 5.1189 17.224 5.1189C16.4482 5.1189 15.8193 5.96972 15.8193 7.01927C15.8193 8.06882 16.4482 8.91965 17.224 8.91965Z" fill="#ECEFF1"/>
<path d="M14.1058 7.2149C14.0371 6.67164 13.7246 6.26371 13.4077 6.30377C13.0908 6.34382 12.8895 6.8167 12.9582 7.35996C13.0269 7.90322 13.3394 8.31116 13.6563 8.2711C13.9732 8.23104 14.1745 7.75817 14.1058 7.2149Z" fill="#212121"/>
<path d="M17.1417 8.42388C17.598 8.42388 17.9679 7.94298 17.9679 7.34976C17.9679 6.75654 17.598 6.27563 17.1417 6.27563C16.6854 6.27563 16.3154 6.75654 16.3154 7.34976C16.3154 7.94298 16.6854 8.42388 17.1417 8.42388Z" fill="#212121"/>
<path d="M28.1305 25.5272C27.8 25.3619 27.2216 25.1141 26.7259 24.3704C26.478 23.9573 26.5606 22.8006 26.1475 22.3048C25.8996 21.9743 25.5691 22.1396 25.4865 22.1396C24.7429 22.3048 23.0077 23.4616 21.851 22.1396C21.6857 21.9743 21.4379 21.7264 21.0247 21.7264C20.6116 21.7264 20.4464 21.8917 20.2811 22.2222C20.1159 22.5527 20.1159 22.8006 20.1159 23.6268C20.1159 24.2878 20.1159 25.0314 20.0332 25.6098C19.868 27.0144 19.6201 27.8407 19.6201 28.6669C19.6201 29.5758 19.868 30.1542 20.1985 30.4021C20.4464 30.6499 20.8595 30.8152 21.7684 30.8152C22.6772 30.8152 23.2556 30.4847 23.834 29.9063C24.2471 29.4932 24.5776 29.3279 25.7344 28.5017C26.6432 27.9233 28.0479 27.1797 28.2957 26.9318C28.461 26.7666 28.7089 26.6839 28.7089 26.1882C28.7089 25.7751 28.3784 25.6098 28.1305 25.5272Z" fill="#FFC107"/>
<path d="M11.5232 25.775C10.6969 24.453 10.6143 24.2052 10.0359 23.3789C9.54016 22.5527 8.46603 20.9828 7.80503 20.9828C7.30928 20.9828 7.06141 21.2307 6.73091 21.5612C6.40041 21.8917 6.06991 22.6353 5.49153 23.0484C4.99578 23.4615 3.59116 23.3789 3.26066 23.8747C2.93016 24.3704 3.59116 25.114 3.59116 26.3534C3.59116 26.8492 3.17803 27.1797 3.09541 27.5102C3.01278 27.9233 2.93016 28.1712 3.09541 28.5017C3.42591 28.9974 3.83903 29.1627 6.64828 29.741C8.13553 30.0715 9.54016 30.8978 10.449 30.9804C11.3579 31.063 12.9278 30.9804 12.9278 28.7495C13.0104 27.4275 12.2668 27.097 11.5232 25.775Z" fill="#FFC107"/>
<path d="M13.093 10.8199C12.5972 10.4894 12.1841 10.1589 12.1841 9.66318C12.1841 9.16743 12.5146 9.00218 13.0103 8.58905C13.093 8.50643 14.0018 7.68018 14.9107 7.68018C15.8196 7.68018 16.8937 8.25855 17.3068 8.4238C18.0505 8.58905 18.7941 8.7543 18.7115 9.33268C18.6288 10.1589 18.5462 10.3242 17.72 10.7373C17.1416 10.9026 16.0675 11.8114 15.3238 11.8114C14.9933 11.8114 14.4976 11.8114 14.1671 11.7288C13.9192 11.6462 13.5061 11.233 13.093 10.8199Z" fill="#FFC107"/>
<path d="M12.9276 10.159C13.0928 10.3242 13.3407 10.4895 13.5886 10.5721C13.7538 10.6547 14.0017 10.7374 14.0017 10.7374C14.3322 10.7374 14.5801 10.7374 14.7453 10.7374C15.1585 10.7374 15.7368 10.5721 16.3152 10.2416C16.8936 9.99373 16.9762 9.82848 17.3893 9.66323C17.8025 9.41535 18.2156 9.16748 18.0503 9.08485C17.8851 9.00223 17.7198 9.08485 17.1415 9.41535C16.6457 9.74585 16.2326 9.9111 15.7368 10.159C15.489 10.2416 15.1585 10.4069 14.9106 10.4069C14.6627 10.4069 14.4148 10.4069 14.167 10.4069C13.9191 10.4069 13.7538 10.3242 13.506 10.2416C13.3407 10.159 13.2581 10.0764 13.1755 10.0764C13.0102 9.99373 12.6797 9.66323 12.5145 9.5806C12.5145 9.5806 12.3492 9.5806 12.4318 9.66323C12.6797 9.9111 12.7623 9.99373 12.9276 10.159Z" fill="#634703"/>
<path d="M15.4062 8.34114C15.4889 8.50639 15.6541 8.50639 15.7367 8.58901C15.8194 8.67164 15.902 8.67164 15.902 8.67164C15.9846 8.58901 15.902 8.42376 15.8194 8.42376C15.8194 8.25851 15.4062 8.25851 15.4062 8.34114Z" fill="#634703"/>
<path d="M14.084 8.50642C14.084 8.58904 14.2492 8.67167 14.2492 8.58904C14.3319 8.50642 14.4145 8.42379 14.4971 8.42379C14.6624 8.34117 14.5797 8.25854 14.3319 8.25854C14.1666 8.34117 14.1666 8.42379 14.084 8.50642Z" fill="#634703"/>
<path d="M22.0991 23.131C22.0991 23.2136 22.0991 23.2963 22.0991 23.3789C22.2643 23.7094 22.6774 23.792 23.0079 23.792C23.5037 23.792 23.9994 23.4615 24.2473 23.131C24.2473 23.0484 24.3299 22.9658 24.4126 22.8831C24.5778 22.6353 24.6604 22.47 24.7431 22.3874C24.7431 22.3874 24.6604 22.3048 24.6604 22.2221C24.5778 22.0569 24.3299 21.8916 23.9994 21.809C23.7516 21.7264 23.3384 21.6438 23.1732 21.6438C22.4296 21.5611 22.0164 21.809 21.7686 22.0569C21.7686 22.0569 21.8512 22.0569 21.8512 22.1395C22.0164 22.3048 22.0991 22.47 22.0991 22.7179C22.1817 22.8831 22.0991 22.9658 22.0991 23.131Z" fill="#455A64"/>
</svg>
